<svg width="20" height="20" viewBox="0 0 20 20" fill="none" xmlns="http://www.w3.org/2000/svg">
<path d="M8.48335 11.8917L5.96677 9.37488C5.81673 9.22502 5.62814 9.14828 5.401 9.14467C5.17404 9.14124 4.98202 9.21797 4.82494 9.37488C4.66803 9.53196 4.58958 9.72226 4.58958 9.94579C4.58958 10.1693 4.66803 10.3596 4.82494 10.5167L7.79788 13.4896C7.99378 13.6854 8.22227 13.7832 8.48335 13.7832C8.74444 13.7832 8.97293 13.6854 9.16883 13.4896L15.196 7.46252C15.3458 7.31248 15.4226 7.12389 15.4262 6.89675C15.4296 6.66979 15.3529 6.47777 15.196 6.32069C15.0389 6.16379 14.8486 6.08534 14.625 6.08534C14.4015 6.08534 14.2112 6.16379 14.0541 6.32069L8.48335 11.8917ZM2.75008 19.2083C2.20282 19.2083 1.7396 19.0187 1.36044 18.6395C0.98127 18.2604 0.791687 17.7972 0.791687 17.2499V2.75002C0.791687 2.20276 0.98127 1.73954 1.36044 1.36038C1.7396 0.981209 2.20282 0.791626 2.75008 0.791626H17.25C17.7972 0.791626 18.2604 0.981209 18.6396 1.36038C19.0188 1.73954 19.2084 2.20276 19.2084 2.75002V17.2499C19.2084 17.7972 19.0188 18.2604 18.6396 18.6395C18.2604 19.0187 17.7972 19.2083 17.25 19.2083H2.75008Z" fill="#0D00A4"/>
</svg>
