<svg width="20" height="15" viewBox="0 0 20 15" fill="none" xmlns="http://www.w3.org/2000/svg">
<path d="M3.52505 12.1749L7.07505 8.62491C7.27505 8.42491 7.50838 8.32908 7.77505 8.33741C8.04172 8.34575 8.27505 8.44991 8.47505 8.64991C8.65838 8.84991 8.75005 9.08325 8.75005 9.34991C8.75005 9.61658 8.65838 9.84991 8.47505 10.0499L4.25005 14.2999C4.05005 14.4999 3.81672 14.5999 3.55005 14.5999C3.28338 14.5999 3.05005 14.4999 2.85005 14.2999L0.700049 12.1499C0.516715 11.9666 0.425049 11.7332 0.425049 11.4499C0.425049 11.1666 0.516715 10.9332 0.700049 10.7499C0.883382 10.5666 1.11672 10.4749 1.40005 10.4749C1.68338 10.4749 1.91672 10.5666 2.10005 10.7499L3.52505 12.1749ZM3.52505 4.17491L7.07505 0.624914C7.27505 0.424914 7.50838 0.329081 7.77505 0.337414C8.04172 0.345747 8.27505 0.449914 8.47505 0.649914C8.65838 0.849914 8.75005 1.08325 8.75005 1.34991C8.75005 1.61658 8.65838 1.84991 8.47505 2.04991L4.25005 6.29991C4.05005 6.49991 3.81672 6.59991 3.55005 6.59991C3.28338 6.59991 3.05005 6.49991 2.85005 6.29991L0.700049 4.14991C0.516715 3.96658 0.425049 3.73325 0.425049 3.44991C0.425049 3.16658 0.516715 2.93325 0.700049 2.74991C0.883382 2.56658 1.11672 2.47491 1.40005 2.47491C1.68338 2.47491 1.91672 2.56658 2.10005 2.74991L3.52505 4.17491ZM12 12.9999C11.7167 12.9999 11.4792 12.9041 11.2875 12.7124C11.0959 12.5207 11 12.2832 11 11.9999C11 11.7166 11.0959 11.4791 11.2875 11.2874C11.4792 11.0957 11.7167 10.9999 12 10.9999H19C19.2834 10.9999 19.5209 11.0957 19.7125 11.2874C19.9042 11.4791 20 11.7166 20 11.9999C20 12.2832 19.9042 12.5207 19.7125 12.7124C19.5209 12.9041 19.2834 12.9999 19 12.9999H12ZM12 4.99991C11.7167 4.99991 11.4792 4.90408 11.2875 4.71241C11.0959 4.52075 11 4.28325 11 3.99991C11 3.71658 11.0959 3.47908 11.2875 3.28741C11.4792 3.09575 11.7167 2.99991 12 2.99991H19C19.2834 2.99991 19.5209 3.09575 19.7125 3.28741C19.9042 3.47908 20 3.71658 20 3.99991C20 4.28325 19.9042 4.52075 19.7125 4.71241C19.5209 4.90408 19.2834 4.99991 19 4.99991H12Z" fill="#636366"/>
</svg>
