<svg width="20" height="20" viewBox="0 0 20 20" fill="none" xmlns="http://www.w3.org/2000/svg">
<path d="M2.75008 19.2083C2.20282 19.2083 1.7396 19.0187 1.36044 18.6395C0.98127 18.2604 0.791687 17.7972 0.791687 17.2499V2.75002C0.791687 2.20276 0.98127 1.73954 1.36044 1.36038C1.7396 0.981209 2.20282 0.791626 2.75008 0.791626H17.25C17.7972 0.791626 18.2604 0.981209 18.6396 1.36038C19.0188 1.73954 19.2084 2.20276 19.2084 2.75002V17.2499C19.2084 17.7972 19.0188 18.2604 18.6396 18.6395C18.2604 19.0187 17.7972 19.2083 17.25 19.2083H2.75008ZM2.75008 17.5833H17.25C17.3334 17.5833 17.4097 17.5485 17.4791 17.479C17.5486 17.4097 17.5834 17.3333 17.5834 17.2499V2.75002C17.5834 2.6666 17.5486 2.59023 17.4791 2.5209C17.4097 2.45138 17.3334 2.41663 17.25 2.41663H2.75008C2.66667 2.41663 2.59029 2.45138 2.52096 2.5209C2.45144 2.59023 2.41669 2.6666 2.41669 2.75002V17.2499C2.41669 17.3333 2.45144 17.4097 2.52096 17.479C2.59029 17.5485 2.66667 17.5833 2.75008 17.5833Z" fill="#848487"/>
</svg>
