<svg width="22" height="22" viewBox="0 0 22 22" fill="none" xmlns="http://www.w3.org/2000/svg">
<path d="M11 21.8333C9.51351 21.8333 8.11122 21.5489 6.79317 20.9802C5.47511 20.4114 4.32551 19.6366 3.34437 18.6556C2.36342 17.6745 1.58856 16.5249 1.01981 15.2068C0.451062 13.8888 0.166687 12.4865 0.166687 11C0.166687 9.50135 0.451062 8.09302 1.01981 6.77496C1.58856 5.4569 2.36342 4.31038 3.34437 3.33538C4.32551 2.36038 5.47511 1.5885 6.79317 1.01975C8.11122 0.451001 9.51351 0.166626 11 0.166626C12.4986 0.166626 13.907 0.451001 15.225 1.01975C16.5431 1.5885 17.6896 2.36038 18.6646 3.33538C19.6396 4.31038 20.4115 5.4569 20.9802 6.77496C21.549 8.09302 21.8334 9.50135 21.8334 11C21.8334 12.4865 21.549 13.8888 20.9802 15.2068C20.4115 16.5249 19.6396 17.6745 18.6646 18.6556C17.6896 19.6366 16.5431 20.4114 15.225 20.9802C13.907 21.5489 12.4986 21.8333 11 21.8333ZM11 20.0276C13.5157 20.0276 15.6492 19.149 17.4006 17.3916C19.152 15.6343 20.0277 13.5037 20.0277 11C20.0277 8.48428 19.152 6.35074 17.4006 4.59936C15.6492 2.84797 13.5157 1.97227 11 1.97227C8.49626 1.97227 6.3657 2.84797 4.60835 4.59936C2.85101 6.35074 1.97233 8.48428 1.97233 11C1.97233 13.5037 2.85101 15.6343 4.60835 17.3916C6.3657 19.149 8.49626 20.0276 11 20.0276Z" fill="#848487"/>
</svg>
