<svg width="16" height="14" viewBox="0 0 16 14" fill="none" xmlns="http://www.w3.org/2000/svg">
<path d="M1 14C0.716667 14 0.479167 13.9042 0.2875 13.7125C0.0958333 13.5208 0 13.2833 0 13C0 12.7167 0.0958333 12.4792 0.2875 12.2875C0.479167 12.0958 0.716667 12 1 12H9C9.28333 12 9.52083 12.0958 9.7125 12.2875C9.90417 12.4792 10 12.7167 10 13C10 13.2833 9.90417 13.5208 9.7125 13.7125C9.52083 13.9042 9.28333 14 9 14H1ZM1 10C0.716667 10 0.479167 9.90417 0.2875 9.7125C0.0958333 9.52083 0 9.28333 0 9C0 8.71667 0.0958333 8.47917 0.2875 8.2875C0.479167 8.09583 0.716667 8 1 8H15C15.2833 8 15.5208 8.09583 15.7125 8.2875C15.9042 8.47917 16 8.71667 16 9C16 9.28333 15.9042 9.52083 15.7125 9.7125C15.5208 9.90417 15.2833 10 15 10H1ZM1 6C0.716667 6 0.479167 5.90417 0.2875 5.7125C0.0958333 5.52083 0 5.28333 0 5C0 4.71667 0.0958333 4.47917 0.2875 4.2875C0.479167 4.09583 0.716667 4 1 4H15C15.2833 4 15.5208 4.09583 15.7125 4.2875C15.9042 4.47917 16 4.71667 16 5C16 5.28333 15.9042 5.52083 15.7125 5.7125C15.5208 5.90417 15.2833 6 15 6H1ZM1 2C0.716667 2 0.479167 1.90417 0.2875 1.7125C0.0958333 1.52083 0 1.28333 0 1C0 0.716667 0.0958333 0.479167 0.2875 0.2875C0.479167 0.0958333 0.716667 0 1 0H15C15.2833 0 15.5208 0.0958333 15.7125 0.2875C15.9042 0.479167 16 0.716667 16 1C16 1.28333 15.9042 1.52083 15.7125 1.7125C15.5208 1.90417 15.2833 2 15 2H1Z" fill="#636366"/>
</svg>
